<?xml version="1.0" encoding="UTF-8"?>
<svg id="Layer_2" data-name="Layer 2" xmlns="http://www.w3.org/2000/svg" viewBox="0 0 343.42 321.38">
  <defs>
    <style>
      .cls-1 {
        fill: #a22028;
      }

      .cls-1, .cls-2, .cls-3, .cls-4 {
        stroke-width: 0px;
      }

      .cls-2 {
        fill: #bdbcde;
      }

      .cls-3 {
        fill: #eb763c;
      }

      .cls-4 {
        fill: #5653a3;
      }
    </style>
  </defs>
  <g id="Layer_1-2" data-name="Layer 1">
    <g>
      <path class="cls-4" d="M.19,321.29c-.05-1.1-.14-2.21-.14-3.31,0-47.09.11-94.18-.05-141.27-.1-29.18,6.64-56.77,21.23-82.61,18.3-32.42,44.94-57.1,79.72-74.14C121.17,10.06,142.64,4,165.34,1.55c8.26-.89,16.54-1.26,24.83-1.27,49.82-.07,99.63-.03,149.45-.04,1.27,0,2.57.23,3.81-.24v21.02c-.49-.02-.99-.06-1.48-.06-52.1,0-104.2.03-156.29,0-12.3,0-24.41,1.29-36.37,3.95-35.4,7.85-64.85,24.88-88.3,50.65-26.5,29.11-39.05,63.11-39.04,101.21,0,47.01,0,94.01,0,141.02,0,1.19-.1,2.39-.16,3.58-7.2-.02-14.39-.05-21.59-.07Z"/>
      <path class="cls-1" d="M43.83,320.81c.03-2.03.08-4.05.08-6.08,0-46.09-.04-92.17.02-138.26.04-29.54,9-56.55,27.94-80.27,22.65-28.37,52.79-46,90.22-52.55,9.06-1.59,18.2-2.19,27.41-2.18,51.31.03,102.62.01,153.93.01v21.57c-.87-.08-1.75-.24-2.62-.24-51.01.04-102.01.13-153.02.14-31.9,0-59.62,10.18-82.75,30.46-25.39,22.26-38.03,49.97-38.07,82.51-.07,47.28-.02,94.56-.02,141.83,0,1.2-.08,2.39-.12,3.59-6.65,0-13.3,0-19.94-.04-1.03,0-2.17.38-3.05-.49Z"/>
      <path class="cls-2" d="M343.42,81.31v21.02c-51.89,0-103.77.01-155.66-.02-4.95,0-9.88.43-14.67,1.32-17.26,3.21-31.86,10.89-43.41,23.41-12.55,13.59-18.67,29.43-18.8,47.27-.13,17.41-.02,34.83-.03,52.25-.01,31.61-.03,63.21-.05,94.82-7.66,0-15.33,0-22.99-.01-.02-9.66.28-19.32.35-28.98.28-40.18.16-80.37.08-120.55-.01-5.09.33-10.14,1.41-15.06,3.86-17.67,12.09-33.34,25.47-46.53,10.91-10.75,23.84-18.64,38.71-23.74,8.26-2.83,16.83-5.06,25.6-5.09,54.66-.2,109.33-.1,164-.1Z"/>
      <path class="cls-3" d="M131.76,321.34c-.05-.92-.14-1.84-.14-2.76,0-47.75-.04-95.51.01-143.26.02-20.29,9.42-35.8,28.02-46.28,7.55-4.25,15.95-6.68,24.78-6.69,38.07-.02,76.13.2,114.2.32,14.93.05,29.86.08,44.79.12v21.02c-1.08.05-2.16.15-3.24.15-50.39-.14-100.78-.09-151.17-.54-18.59-.17-34.78,12.61-34.71,32.32.17,47.35.06,94.7.04,142.05,0,1.19-.17,2.37-.26,3.56-7.44,0-14.89-.01-22.33-.02Z"/>
    </g>
  </g>
</svg>