<?xml version="1.0" standalone="no"?>
<!DOCTYPE svg PUBLIC "-//W3C//DTD SVG 20010904//EN"
 "http://www.w3.org/TR/2001/REC-SVG-20010904/DTD/svg10.dtd">
<svg version="1.0" xmlns="http://www.w3.org/2000/svg"
 width="4000.000000pt" height="3000.000000pt" viewBox="0 0 4000.000000 3000.000000"
 preserveAspectRatio="xMidYMid meet">

<g transform="translate(0.000000,3000.000000) scale(0.100000,-0.100000)"
fill="#000000" stroke="none">
<path d="M19430 23429 c-130 -15 -294 -46 -1045 -195 -401 -80 -1067 -212
-1480 -294 -412 -82 -1342 -266 -2065 -410 -2218 -440 -2062 -407 -2247 -476
-280 -105 -515 -271 -636 -452 -85 -127 -137 -330 -137 -536 1 -249 35 -387
175 -701 l63 -140 -54 -225 c-29 -124 -53 -236 -53 -250 0 -14 12 -52 27 -84
l28 -59 18 79 c57 250 89 374 96 379 4 2 29 -44 55 -103 27 -59 61 -134 76
-167 15 -33 45 -100 67 -150 22 -49 51 -115 65 -145 46 -99 288 -641 296 -663
5 -12 22 -51 39 -87 42 -91 69 -152 160 -356 44 -99 92 -206 107 -239 51 -112
73 -160 115 -255 109 -242 151 -336 160 -351 5 -10 21 -46 35 -80 26 -60 203
-458 357 -799 39 -85 146 -326 239 -535 94 -209 185 -413 204 -453 19 -40 35
-75 35 -77 0 -3 16 -40 36 -82 42 -92 37 -81 158 -351 53 -117 96 -215 96
-217 0 -2 15 -37 34 -77 68 -146 146 -317 146 -321 0 -4 133 -302 189 -422 15
-33 44 -96 63 -140 20 -44 48 -107 63 -140 15 -33 54 -121 87 -195 33 -74 72
-162 88 -195 15 -33 63 -139 105 -235 91 -206 104 -235 162 -360 25 -52 64
-140 88 -195 57 -133 127 -288 214 -478 23 -49 41 -91 41 -93 0 -2 13 -32 29
-66 36 -80 195 -430 256 -568 26 -58 84 -188 130 -290 97 -218 282 -632 318
-710 113 -249 217 -482 217 -485 0 -2 17 -41 39 -87 21 -46 74 -162 116 -258
84 -189 109 -245 161 -358 19 -41 34 -75 34 -77 0 -2 17 -41 39 -87 21 -45 47
-103 58 -128 19 -43 47 -104 213 -475 39 -88 99 -221 132 -295 33 -74 76 -168
94 -208 19 -41 34 -75 34 -77 0 -2 17 -41 39 -87 21 -45 48 -103 58 -128 11
-25 37 -83 58 -130 21 -47 48 -107 61 -135 12 -27 43 -97 69 -155 47 -107 70
-157 105 -233 10 -23 48 -107 83 -187 107 -241 246 -553 266 -595 10 -22 32
-69 48 -105 17 -36 41 -89 53 -118 l23 -53 -72 -218 c-39 -119 -71 -222 -71
-228 0 -6 17 -48 37 -93 l37 -83 68 204 c37 112 71 211 74 219 7 20 20 -6 150
-298 110 -246 223 -472 253 -507 24 -27 33 -55 18 -55 -8 0 -6 -4 3 -10 13 -8
12 -11 -5 -25 -11 -9 -14 -14 -8 -10 7 3 20 2 29 -3 15 -8 15 -10 0 -15 -13
-5 -15 -11 -7 -26 8 -14 7 -21 -2 -25 -9 -5 -9 -7 1 -12 6 -3 9 -10 6 -16 -4
-6 -13 -1 -21 13 l-14 24 7 -24 c4 -17 3 -21 -6 -16 -9 5 -11 4 -6 -3 4 -8 0
-12 -11 -12 -15 0 -16 -2 -3 -10 9 -6 18 -6 24 0 14 14 26 12 23 -3 -3 -19
-20 -27 -34 -15 -7 6 -13 9 -14 7 -6 -36 -6 -60 2 -64 12 -8 11 -35 -2 -35 -5
0 -8 4 -5 9 3 5 -1 11 -9 14 -9 4 -12 1 -8 -9 3 -8 -3 -24 -12 -34 -17 -19
-14 -24 10 -21 6 1 2 -5 -7 -12 -10 -8 -18 -20 -18 -28 0 -11 2 -11 11 1 8 11
9 7 5 -18 -4 -20 -2 -31 4 -27 9 6 14 -8 11 -27 0 -5 3 -8 9 -8 5 0 7 -7 4
-15 -4 -8 -2 -15 3 -15 6 0 15 -12 22 -28 10 -21 3 -17 -33 21 -69 73 -55 45
23 -47 269 -316 609 -519 1006 -598 94 -19 143 -23 335 -23 313 0 379 10 820
130 236 65 210 60 210 42 0 -20 170 27 190 52 9 12 48 27 100 40 47 12 119 30
160 42 41 11 82 22 90 24 8 2 40 11 70 19 30 8 91 24 135 36 44 11 87 22 95
25 8 2 49 13 90 24 41 11 111 29 155 41 44 12 103 28 130 35 48 12 143 37 395
105 63 17 122 32 130 34 8 2 69 19 135 36 139 37 295 78 345 90 36 9 183 48
525 140 105 28 267 70 360 95 94 24 195 51 225 60 30 8 105 28 165 44 252 66
350 93 356 97 4 2 35 10 70 18 35 8 109 26 164 41 211 56 253 67 360 95 61 16
137 36 170 45 33 9 74 20 90 25 17 4 66 18 110 30 85 24 145 39 184 46 14 3
28 7 33 10 4 3 16 7 25 9 40 8 339 86 353 92 8 3 20 7 25 8 6 1 13 3 18 5 4 1
12 4 17 5 6 1 11 3 13 5 1 1 11 3 22 5 19 2 43 9 140 35 55 15 58 16 165 44
52 14 165 44 250 66 85 23 162 43 170 45 79 19 177 48 186 56 6 5 14 6 17 2 4
-3 7 -1 7 6 0 7 4 10 9 7 5 -3 14 1 21 9 7 8 18 15 25 15 6 0 12 6 13 13 6 44
9 57 17 64 4 5 4 1 0 -7 -8 -13 -7 -13 9 -1 17 14 17 16 -1 29 -17 13 -17 13
2 10 16 -2 19 2 18 20 -2 13 1 21 7 17 14 -8 13 8 -1 22 -8 8 -5 13 11 18 18
6 20 9 9 16 -11 7 -10 12 5 26 19 17 19 17 6 -2 -15 -20 -15 -20 8 0 17 14 23
28 21 55 -2 23 1 34 9 33 7 -2 12 4 12 13 0 8 5 12 11 8 6 -3 14 -2 18 3 3 6
35 25 71 43 230 115 400 230 514 345 91 91 111 115 97 115 -6 0 -14 -6 -18
-13 -4 -8 -23 -22 -40 -32 -18 -11 -33 -22 -33 -26 0 -4 -21 -20 -47 -35 -27
-15 -50 -31 -53 -34 -7 -10 -106 -64 -201 -111 -95 -46 -146 -62 -153 -46 -2
7 -5 4 -5 -5 -1 -10 -2 -18 -4 -18 -1 0 -16 -4 -32 -9 -26 -7 -31 -6 -31 10 0
11 4 19 8 19 4 0 8 -5 8 -11 0 -7 13 2 29 19 19 19 32 26 35 19 3 -9 5 -9 5 0
1 7 8 10 16 7 10 -4 15 0 15 11 0 9 5 13 10 10 6 -3 13 0 16 9 3 8 14 13 25
11 12 -3 17 0 13 7 -5 7 -2 9 9 5 8 -3 21 1 29 10 20 25 88 64 99 58 5 -4 9
-3 8 2 -4 22 3 33 19 33 9 0 35 17 56 38 22 20 42 37 45 37 19 0 231 210 231
229 0 3 16 29 35 56 19 27 35 54 35 60 0 5 9 24 20 42 30 49 71 184 78 258 16
159 5 286 -37 453 -39 155 -83 260 -222 539 -66 130 -119 241 -119 247 0 16
-66 146 -83 162 -7 8 -76 136 -151 284 -76 149 -190 371 -254 495 -63 124
-165 324 -227 445 -143 280 -325 636 -500 980 -76 149 -186 365 -245 480 -59
116 -169 332 -245 480 -76 149 -186 365 -245 480 -103 202 -206 404 -478 935
-68 135 -171 335 -227 445 -56 110 -171 335 -255 500 -84 165 -190 372 -235
460 -45 88 -156 304 -245 480 -90 176 -202 397 -250 490 -48 94 -163 319 -255
500 -92 182 -211 416 -265 520 -104 202 -261 511 -485 950 -76 149 -184 360
-240 470 -56 110 -168 328 -248 485 -79 157 -254 499 -387 760 -133 261 -308
603 -387 760 -80 157 -187 366 -238 465 -51 99 -172 338 -270 530 -98 193
-210 413 -250 490 -100 194 -277 549 -306 615 -13 30 -33 68 -44 85 -12 16
-62 110 -113 209 -135 260 -209 370 -352 520 -289 302 -648 477 -1082 525
-112 13 -368 12 -478 0z m554 -200 c323 -43 584 -185 814 -442 102 -114 177
-229 273 -419 45 -90 105 -208 134 -263 29 -55 139 -271 245 -480 106 -209
248 -488 315 -620 320 -628 423 -830 695 -1365 569 -1119 613 -1207 715 -1405
56 -110 191 -375 300 -590 109 -214 248 -489 310 -610 62 -121 242 -474 400
-785 158 -311 349 -686 425 -835 76 -148 330 -648 565 -1110 235 -462 494
-970 575 -1130 81 -159 216 -425 300 -590 251 -493 435 -856 565 -1110 190
-372 386 -757 580 -1140 98 -192 212 -417 255 -500 43 -82 169 -330 280 -550
112 -220 226 -445 255 -500 144 -274 456 -909 480 -975 71 -200 102 -441 76
-595 -44 -260 -217 -459 -525 -606 -167 -79 -70 -51 -1611 -454 -434 -113
-1082 -283 -1440 -376 -357 -94 -909 -238 -1225 -320 -316 -83 -615 -161 -665
-174 -49 -13 -178 -47 -285 -75 -107 -28 -244 -64 -305 -80 -1242 -326 -1569
-410 -1677 -431 -134 -26 -405 -36 -547 -20 -421 49 -761 270 -1026 666 -87
130 -136 231 -445 915 -222 491 -314 695 -590 1305 -67 149 -193 428 -280 620
-87 193 -212 469 -278 615 -66 146 -161 357 -212 470 -108 241 -286 635 -395
875 -43 94 -183 404 -312 690 -348 772 -628 1391 -768 1700 -35 77 -169 374
-298 660 -129 286 -405 896 -612 1355 -208 459 -419 927 -470 1040 -51 113
-168 372 -260 575 -92 204 -195 433 -230 510 -35 77 -192 426 -350 775 -158
349 -382 844 -497 1100 -115 256 -218 483 -228 505 -168 370 -321 710 -355
785 -23 52 -114 255 -202 450 -221 490 -220 487 -250 597 -24 87 -27 116 -28
258 0 150 2 165 28 243 65 187 196 316 440 432 56 27 154 64 218 84 71 21 938
199 2275 465 3268 651 4213 839 4285 851 165 28 394 32 563 9z m8227 -16852
c-10 -9 -11 -8 -5 6 3 10 9 15 12 12 3 -3 0 -11 -7 -18z m-784 -614 c-11 -10
-26 8 -20 23 5 15 7 14 15 -1 6 -9 7 -19 5 -22z m-281 -70 c-11 -11 -17 4 -9
23 7 18 8 18 11 1 2 -10 1 -21 -2 -24z m-176 21 c0 -8 -19 -13 -24 -6 -3 5 1
9 9 9 8 0 15 -2 15 -3z m-90 -85 c0 -5 -4 -9 -10 -9 -5 0 -10 7 -10 16 0 8 5
12 10 9 6 -3 10 -10 10 -16z m-280 -71 c0 -16 -3 -19 -11 -11 -6 6 -8 16 -5
22 11 17 16 13 16 -11z m-277 -63 c4 -8 2 -17 -3 -20 -6 -4 -10 3 -10 14 0 25
6 27 13 6z m-279 -80 c3 -8 1 -15 -4 -15 -6 0 -10 7 -10 15 0 8 2 15 4 15 2 0
6 -7 10 -15z m-835 -237 c1 -5 -3 -8 -9 -8 -5 0 -10 12 -9 28 0 24 1 25 9 7 5
-11 9 -23 9 -27z m-1369 -339 c0 -6 -7 -17 -15 -25 -13 -14 -15 -14 -15 -1 0
25 11 47 21 41 5 -3 9 -10 9 -15z m-444 -137 c-12 -11 -18 7 -10 30 l8 23 4
-23 c2 -13 1 -26 -2 -30z m-4486 23 c-7 -9 -15 -13 -17 -11 -7 7 7 26 19 26 6
0 6 -6 -2 -15z m-25 -75 c-3 -5 -11 -10 -16 -10 -6 0 -7 5 -4 10 3 6 11 10 16
10 6 0 7 -4 4 -10z m15 -44 c0 -2 -7 -7 -16 -10 -8 -3 -12 -2 -9 4 6 10 25 14
25 6z m3697 -108 c-3 -7 -5 -2 -5 12 0 14 2 19 5 13 2 -7 2 -19 0 -25z m-281
-75 c-11 -11 -17 4 -9 23 7 18 8 18 11 1 2 -10 1 -21 -2 -24z m-289 -75 c-3
-7 -5 -2 -5 12 0 14 2 19 5 13 2 -7 2 -19 0 -25z m-192 12 c-3 -5 -12 -10 -18
-10 -7 0 -6 4 3 10 19 12 23 12 15 0z m-85 -76 c0 -8 -5 -12 -10 -9 -6 4 -8
11 -5 16 9 14 15 11 15 -7z"/>
<path d="M17225 22503 c-91 -13 -1726 -345 -1769 -359 -108 -35 -161 -76 -190
-146 -61 -145 53 -319 247 -380 108 -33 194 -26 577 52 1482 298 1480 297
1554 353 76 59 99 178 51 274 -74 148 -272 234 -470 206z m213 -246 c22 -20
28 -50 16 -81 -5 -14 -10 -13 -31 8 -14 14 -26 35 -28 48 -1 13 -6 31 -10 41
-6 14 -4 16 11 11 11 -4 29 -16 42 -27z m-113 -40 c6 -26 17 -52 25 -57 11 -7
8 -10 -15 -10 -34 1 -56 15 -74 48 -10 19 -10 28 4 48 25 38 48 27 60 -29z"/>
<path d="M20625 17434 c-192 -42 -667 -143 -1055 -226 -388 -82 -833 -177
-990 -210 -905 -189 -1467 -312 -1508 -330 -116 -50 -214 -159 -248 -274 -18
-63 -20 -163 -4 -241 12 -55 1778 -4009 1837 -4112 34 -58 55 -83 138 -166
125 -124 317 -205 484 -205 86 0 127 10 1621 381 1854 461 2377 592 2427 611
96 35 195 146 226 253 18 64 22 187 6 251 -14 62 -1872 3985 -1913 4039 -75
101 -198 197 -316 246 -191 81 -252 79 -705 -17z m217 -1437 c35 -30 38 -37
43 -102 3 -38 7 -88 10 -110 9 -90 18 -161 21 -180 2 -10 6 -37 9 -60 4 -22
13 -74 22 -115 8 -41 17 -84 19 -95 7 -34 -6 -72 -33 -99 -29 -29 -55 -33 -73
-11 -7 8 -21 15 -31 15 -25 0 -33 31 -72 270 -9 52 -19 113 -22 135 -11 73 -7
323 6 347 25 48 50 49 101 5z m-322 -63 c23 -22 25 -33 27 -122 2 -89 11 -119
28 -93 10 17 82 13 99 -5 33 -32 20 -60 -41 -92 -54 -28 -58 -32 -59 -67 0
-20 6 -73 13 -118 12 -77 19 -134 27 -235 6 -65 -34 -90 -97 -61 -26 12 -56
99 -97 281 l-22 97 -35 -17 -35 -17 -30 34 c-26 29 -31 31 -46 18 -9 -8 -27
-18 -39 -21 -26 -8 -27 -12 -14 -87 12 -69 18 -108 33 -247 10 -97 10 -115 -3
-123 -21 -13 -95 -11 -107 4 -14 17 -45 123 -72 247 -26 116 -32 129 -55 110
-8 -7 -26 -10 -40 -8 -24 5 -25 4 -19 -46 3 -28 8 -62 10 -76 2 -14 7 -47 10
-75 3 -27 9 -69 14 -91 9 -52 -9 -86 -55 -102 -45 -17 -69 -15 -97 7 l-25 20
-32 -34 c-22 -24 -46 -37 -84 -46 -48 -10 -58 -9 -101 9 -40 18 -50 29 -71 74
-13 29 -28 77 -33 106 -8 46 -9 79 -3 195 1 38 42 77 80 77 17 0 41 -10 56
-22 24 -22 26 -29 30 -142 2 -65 6 -121 9 -124 11 -11 36 22 51 68 19 58 22
71 30 183 7 84 8 87 33 93 15 4 44 16 64 28 35 20 38 20 71 4 35 -17 36 -17
72 12 20 16 41 30 47 32 8 3 6 31 -7 92 -21 106 -14 166 21 201 28 28 62 32
103 10 35 -18 41 -37 41 -147 0 -49 4 -88 9 -88 4 0 22 5 40 11 36 13 91 -4
91 -27 0 -8 2 -14 5 -14 10 0 85 52 85 59 0 3 -7 31 -15 61 -8 30 -15 83 -15
117 0 56 3 66 31 98 28 31 36 35 63 30 17 -4 42 -18 56 -31z m746 -143 c37
-22 73 -95 81 -160 7 -65 -23 -107 -104 -146 -34 -16 -62 -33 -62 -36 -1 -4 9
-9 21 -12 14 -4 33 2 53 17 46 35 74 38 120 12 77 -44 49 -94 -80 -141 -63
-23 -83 -26 -131 -20 -49 6 -62 13 -99 50 -50 50 -66 92 -70 190 -4 77 17 159
51 196 27 31 113 69 154 69 19 0 49 -9 66 -19z m-2183 -181 c9 -13 15 -50 16
-98 2 -85 28 -319 38 -335 3 -5 14 11 25 35 54 125 224 94 253 -46 3 -14 7
-38 10 -52 7 -32 42 -103 62 -126 8 -9 13 -27 11 -40 -4 -32 -64 -41 -117 -17
-38 17 -91 80 -105 127 -18 56 -69 -16 -72 -100 -1 -55 -4 -64 -32 -89 -42
-38 -90 -46 -137 -23 -50 24 -61 49 -81 199 -3 28 -10 73 -14 100 -5 28 -7
139 -7 248 l2 198 25 19 c35 27 104 27 123 0z m-318 -102 c52 -27 74 -76 41
-95 -7 -4 -13 -19 -12 -33 1 -28 -38 -52 -111 -70 -40 -10 -43 -13 -43 -44 0
-40 25 -64 100 -98 110 -50 160 -116 160 -211 0 -96 -44 -163 -135 -207 -127
-62 -295 -16 -295 80 0 39 20 51 92 56 74 6 120 26 139 61 13 23 11 27 -16 49
-17 13 -34 24 -38 24 -23 0 -137 66 -170 98 -54 53 -78 143 -61 231 9 42 75
115 128 140 78 38 169 46 221 19z m3134 -215 c49 -11 106 -45 139 -81 31 -36
112 -179 112 -200 0 -6 -51 -22 -112 -36 -62 -15 -120 -29 -128 -31 -10 -3
-27 18 -54 71 -37 72 -64 98 -93 87 -38 -15 -17 -98 40 -157 38 -39 56 -47
177 -86 249 -78 320 -131 409 -299 56 -108 86 -206 76 -251 -25 -114 -198
-201 -372 -186 -147 12 -232 77 -320 244 -29 54 -53 104 -53 110 0 5 33 17 73
26 39 9 98 23 130 31 l57 13 56 -108 c57 -112 76 -130 114 -110 27 14 25 43
-6 110 -37 81 -66 105 -171 145 -51 19 -135 51 -187 70 -52 20 -112 49 -133
64 -94 68 -189 241 -197 361 -8 102 75 181 225 215 61 13 158 13 218 -2z
m-546 -218 c26 -57 47 -108 47 -113 0 -6 -35 -18 -77 -27 -43 -9 -84 -20 -90
-24 -16 -8 69 -194 91 -199 8 -2 41 4 74 12 97 26 93 28 145 -86 26 -57 47
-106 47 -109 0 -3 -38 -14 -85 -24 -47 -10 -85 -20 -85 -22 0 -5 101 -226 106
-232 2 -2 48 8 104 21 70 17 103 21 108 14 16 -21 105 -216 101 -219 -8 -7
-491 -119 -495 -114 -6 5 -515 1100 -517 1111 -2 8 423 113 463 115 10 0 32
-37 63 -104z m-543 -122 c28 -59 49 -112 46 -118 -2 -6 -33 -17 -68 -24 -35
-7 -69 -16 -76 -20 -8 -5 49 -138 194 -450 113 -244 204 -445 202 -447 -12
-11 -280 -66 -286 -58 -5 5 -98 203 -206 439 -109 237 -202 434 -206 438 -4 5
-44 1 -89 -9 -44 -10 -83 -16 -85 -13 -2 2 -26 53 -54 112 -44 93 -49 109 -35
114 15 6 584 139 606 142 4 1 30 -47 57 -106z m-938 -143 c91 -34 191 -142
233 -252 8 -20 14 -18 -220 -67 -104 -22 -210 -44 -233 -49 l-44 -10 -28 61
c-33 71 -42 116 -33 170 20 130 179 202 325 147z m-537 -705 c142 -311 256
-567 254 -569 -10 -9 -239 -58 -251 -53 -7 3 -80 154 -162 336 -83 182 -152
328 -154 326 -3 -3 2 -24 11 -47 8 -24 30 -90 47 -148 28 -93 59 -191 120
-380 9 -31 21 -70 24 -87 7 -30 5 -32 -30 -42 -68 -19 -144 -34 -147 -30 -7 8
-303 486 -367 593 -25 41 -48 78 -52 81 -4 4 65 -152 153 -345 88 -194 157
-355 155 -358 -11 -11 -250 -62 -257 -55 -10 12 -509 1120 -509 1132 0 12 -3
11 203 57 166 37 168 38 186 18 10 -10 78 -118 151 -239 73 -121 137 -224 141
-229 5 -5 -2 22 -15 60 -13 38 -43 130 -66 204 -23 74 -51 162 -61 194 -11 33
-18 61 -16 63 6 5 341 81 363 82 18 1 55 -74 279 -564z m876 308 c30 -32 131
-143 224 -248 93 -104 180 -201 193 -215 37 -41 38 -64 1 -138 -27 -53 -39
-68 -59 -70 -38 -4 -101 43 -141 106 -55 87 -215 346 -233 378 -9 16 -43 72
-75 124 -53 85 -58 96 -43 108 37 28 76 15 133 -45z m-182 -15 c18 -29 42 -69
54 -88 311 -504 302 -488 302 -547 0 -92 -41 -105 -127 -40 -38 29 -52 52
-118 198 -69 153 -200 451 -215 491 -5 13 1 19 27 27 18 5 35 10 39 10 3 1 20
-23 38 -51z m-139 -52 c253 -557 263 -580 263 -622 0 -48 -25 -94 -50 -94 -26
0 -99 47 -118 76 -19 29 -20 34 -130 414 -78 271 -78 272 -76 280 0 3 20 6 42
6 41 0 42 0 69 -60z m-148 -36 c26 -85 49 -165 98 -335 22 -77 49 -169 60
-205 26 -84 26 -141 1 -171 l-19 -24 -54 19 c-68 24 -134 69 -153 106 -17 33
-22 83 -30 280 -3 80 -7 167 -10 195 -14 155 -14 162 1 184 12 17 24 21 51 19
35 -3 37 -5 55 -68z"/>
<path d="M21150 15614 c-15 -37 -12 -64 6 -71 23 -9 44 23 44 64 0 26 -4 33
-20 33 -13 0 -24 -10 -30 -26z"/>
<path d="M19006 14177 c3 -10 9 -15 12 -12 3 3 0 11 -7 18 -10 9 -11 8 -5 -6z"/>
<path d="M12613 18655 c-7 -8 -13 -18 -13 -23 0 -5 45 -110 101 -233 110 -245
119 -268 119 -316 0 -35 -8 -41 -29 -20 -7 6 -1 -12 13 -41 31 -62 55 -66 69
-13 5 19 15 40 23 45 35 26 25 95 -32 215 -19 40 -43 94 -54 120 -10 25 -41
94 -68 152 -44 93 -55 108 -83 118 -17 6 -32 11 -33 11 -1 -1 -7 -7 -13 -15z"/>
<path d="M13113 17528 c-14 -19 -10 -38 19 -93 26 -51 76 -161 287 -632 125
-280 158 -380 148 -457 -3 -21 -11 -42 -18 -47 -11 -6 -10 -9 1 -13 50 -16 69
-15 93 5 37 28 47 75 36 157 -11 81 -22 115 -67 212 -19 41 -54 120 -79 175
-24 55 -55 123 -68 150 -42 90 -86 189 -112 250 -56 134 -124 264 -149 284
-30 23 -77 28 -91 9z"/>
<path d="M13812 15988 c-20 -20 -15 -40 37 -149 43 -91 237 -521 339 -754 19
-44 41 -102 48 -130 18 -68 18 -160 -1 -178 -19 -20 -9 -27 40 -27 32 0 47 6
66 26 21 23 24 34 23 102 0 80 -5 117 -17 128 -4 4 -7 13 -7 20 0 7 -13 41
-29 76 -73 160 -201 446 -201 451 0 5 -66 147 -146 314 -24 51 -54 99 -67 107
-34 22 -71 28 -85 14z"/>
<path d="M16160 10735 c-19 -23 -24 -104 -11 -182 12 -67 63 -192 201 -498 76
-167 262 -583 455 -1015 166 -370 190 -418 221 -432 77 -35 85 139 14 317 -15
39 -98 228 -185 420 -154 342 -332 739 -502 1119 -99 223 -105 234 -133 264
-24 26 -43 28 -60 7z m74 -57 c14 -24 76 -158 139 -298 63 -140 235 -523 382
-850 147 -327 279 -629 292 -670 27 -81 33 -183 14 -219 -10 -17 -15 -19 -31
-11 -11 6 -27 21 -35 34 -8 13 -128 274 -266 582 -137 307 -256 573 -264 589
-7 17 -24 55 -38 85 -13 30 -72 161 -129 290 -141 316 -161 383 -138 468 15
57 41 56 74 0z"/>
<path d="M16977 8884 c-12 -13 -7 -94 8 -130 13 -31 17 -34 35 -24 26 14 27
71 2 119 -17 35 -33 47 -45 35z"/>
<path d="M18770 4586 c0 -2 8 -10 18 -17 15 -13 16 -12 3 4 -13 16 -21 21 -21
13z"/>
</g>
</svg>
